<svg width="28" height="28" viewBox="0 0 28 28" fill="none" xmlns="http://www.w3.org/2000/svg">
<path d="M14 19.8334C13.7021 19.8319 13.4084 19.7641 13.14 19.6349C12.8716 19.5058 12.6353 19.3185 12.4483 19.0867L7.53666 13.1367C7.24965 12.7785 7.06904 12.3469 7.01541 11.891C6.96178 11.4352 7.03728 10.9734 7.23332 10.5584C7.39232 10.1977 7.65177 9.89036 7.98071 9.67313C8.30965 9.45591 8.69416 9.33796 9.08832 9.33337H18.9117C19.3058 9.33796 19.6903 9.45591 20.0193 9.67313C20.3482 9.89036 20.6077 10.1977 20.7667 10.5584C20.9627 10.9734 21.0382 11.4352 20.9846 11.891C20.9309 12.3469 20.7503 12.7785 20.4633 13.1367L15.5517 19.0867C15.3646 19.3185 15.1284 19.5058 14.86 19.6349C14.5916 19.7641 14.2978 19.8319 14 19.8334Z" fill="white"/>
</svg>
